<svg width="183" height="46" viewBox="0 0 183 46" fill="none" xmlns="http://www.w3.org/2000/svg">
<path d="M154.463 25.8485C149.435 25.8485 145.569 23.8129 143.615 22.515L141.047 20.8209L144.448 15.6977L147.017 17.3918C148.41 18.3208 151.211 19.7826 154.818 19.7006C154.476 19.3044 154.149 18.8809 153.834 18.4301C152.659 16.7496 150.064 13.0336 151.252 8.47046C152.386 4.11228 156.526 -0.218582 162.168 0.0273341C167.619 0.232264 171.363 4.49481 172.251 8.57975C173.248 13.1839 170.666 16.7633 169.423 18.4711C169.122 18.8946 168.794 19.2908 168.466 19.6733C168.507 19.6733 168.535 19.6733 168.576 19.6733C171.909 19.6733 174.505 18.2798 175.803 17.3918L178.344 15.6703L181.787 20.7663L179.232 22.4877C177.169 23.8812 172.852 26.1764 167.278 25.7666C166.54 25.7119 164.245 25.466 161.567 24.414C158.917 25.466 156.635 25.7256 155.911 25.7802C155.419 25.8212 154.927 25.8349 154.463 25.8349V25.8485ZM161.758 6.17524C159.176 6.17524 157.605 8.51145 157.209 10.0279C156.772 11.6947 157.769 13.3068 158.821 14.8233C159.627 15.9846 160.624 16.8726 161.635 17.5557C162.646 16.8863 163.63 16.0256 164.45 14.8916C165.625 13.2795 166.636 11.681 166.253 9.91863C165.871 8.15623 164.149 6.28454 161.936 6.20256C161.881 6.20256 161.827 6.20256 161.772 6.20256L161.758 6.17524Z" fill="#3E6DEF"/>
<path d="M0 36.5322H7.10425V25.9441C5.46481 24.7146 4.23522 23.2391 3.37452 21.4493C2.45916 19.7143 1.99465 17.665 1.99465 15.3151C1.99465 12.9652 2.50015 10.7656 3.5248 8.92127C4.4948 7.0769 5.87467 5.54676 7.66439 4.26253C9.39947 3.03295 11.4488 2.06294 13.7986 1.3935C16.1485 0.778714 18.6623 0.478149 21.3127 0.478149C23.9632 0.478149 26.477 0.778714 28.8269 1.3935C31.1767 2.06294 33.226 3.03295 35.0157 4.26253C36.7508 5.54676 38.1307 7.0769 39.1553 8.92127C40.18 10.7656 40.6855 12.9106 40.6855 15.3151C40.6855 17.7196 40.221 19.6596 39.3603 21.4084C38.4449 23.1981 37.1607 24.7282 35.5759 25.9578V36.5459H42.6938V42.7894H0V36.5459V36.5322ZM10.0279 15.3014C10.0279 18.0612 10.9979 20.1651 13.0472 21.6406C14.9872 23.1708 17.747 23.8948 21.3401 23.8948C24.9332 23.8948 27.6383 23.1844 29.6739 21.6406C31.6685 20.1514 32.6932 18.0612 32.6932 15.3014C32.6932 12.5417 31.6685 10.4924 29.6739 8.96226C27.6246 7.4731 24.8102 6.70803 21.3401 6.70803C17.8699 6.70803 15.0009 7.4731 13.0472 8.96226C10.9979 10.4924 10.0279 12.5964 10.0279 15.3014ZM21.3264 30.1384C19.1268 30.1384 17.0775 29.9335 15.1375 29.5236V36.5322H27.5699V29.5236C25.5206 29.9335 23.4713 30.1384 21.3264 30.1384Z" fill="#3E6DEF"/>
<path d="M62.5037 42.2566V7.26819H44.4972V1.02465H70.537V42.2566H62.5037ZM85.5242 42.7621H77.491V0H85.5242V42.7621Z" fill="#3E6DEF"/>
<path d="M91.0437 12.0772C91.0437 10.2328 91.3989 8.59341 92.123 7.06326C92.8334 5.62875 93.8171 4.35818 95.1423 3.27888C96.3719 2.25423 97.902 1.43451 99.7464 0.819721C101.481 0.314226 103.476 0 105.635 0C107.793 0 109.733 0.300564 111.564 0.819721C113.299 1.43451 114.843 2.25423 116.168 3.27888C117.398 4.35818 118.422 5.62875 119.133 7.06326C119.843 8.59341 120.212 10.2328 120.212 12.0772C120.212 13.9216 119.857 15.561 119.133 16.9819C118.422 18.512 117.398 19.7963 116.168 20.8209C114.843 21.9002 113.299 22.7063 111.564 23.2254C109.72 23.8402 107.78 24.0998 105.635 24.0998C103.49 24.0998 101.495 23.8402 99.7464 23.2254C97.902 22.7063 96.3719 21.9002 95.1423 20.8209C93.8171 19.7963 92.8334 18.512 92.123 16.9819C91.4126 15.5474 91.0437 13.9079 91.0437 12.0772ZM128.956 27.9935C128.956 30.3433 128.546 32.5429 127.781 34.4829L137.085 37.5569L133.86 43.2813L124.352 39.9067C121.688 42.6118 118.013 44.6611 113.299 46L109.979 40.7811C111.263 40.4259 112.438 40.0707 113.504 39.6608C114.529 39.251 115.444 38.7455 116.264 38.2263L107.875 35.4666C106.646 37.2563 104.965 38.7865 102.861 40.016C100.716 41.2456 98.2026 42.12 95.3882 42.7211L92.2733 36.8328C95.7571 36.1633 98.3665 35.1387 99.9923 33.7588C101.632 32.4336 102.451 30.48 102.451 27.9798V26.5999H110.13V28.7995C110.075 29.1001 110.034 29.4143 110.034 29.6739L120.472 33.2533C120.731 32.5429 120.936 31.7232 121.086 30.7942C121.196 29.9745 121.291 29.0045 121.291 27.9798V26.5999H128.969V27.9798L128.956 27.9935ZM105.621 17.8699C106.441 17.8699 107.315 17.7606 108.121 17.4601C108.886 17.2005 109.61 16.7906 110.225 16.2851C110.785 15.7796 111.25 15.1648 111.66 14.4407C111.96 13.7713 112.165 13.0062 112.165 12.0909C112.165 11.2165 111.96 10.3968 111.66 9.68637C111.25 8.97594 110.785 8.36115 110.225 7.842C109.61 7.3365 108.9 6.96763 108.121 6.66706C107.301 6.40748 106.427 6.2572 105.621 6.2572C104.706 6.2572 103.886 6.40748 103.121 6.66706C102.301 6.98129 101.632 7.3365 101.072 7.842C100.457 8.36115 99.9513 8.96228 99.6371 9.68637C99.2272 10.3968 99.077 11.2165 99.077 12.0909C99.077 13.0062 99.2272 13.785 99.6371 14.4407C99.9377 15.1512 100.457 15.766 101.072 16.2851C101.632 16.8043 102.301 17.2005 103.121 17.4601C103.886 17.7606 104.706 17.8699 105.621 17.8699ZM133.615 0V24.3047H125.581V0H133.615Z" fill="#3E6DEF"/>
<path d="M140.008 29.2094H182.729V35.4529H165.392V44.3605H157.359V35.4529H140.022V29.2094H140.008Z" fill="#3E6DEF"/>
</svg>
